# xmcd
#
# Track frame offsets: 
#        150
#        983
#        17777
#        37025
#        52521
#        75303
#        95266
#        111866
#        130903
#        149955
#        179338
#        199436
#        221565
#        241060
#
# Disc length: 3428 seconds
#
# Revision: 0
# Processed by: cddbd v1.5.2PL0 Copyright (c) Steve Scherf et al.
# Submitted via: ExactAudioCopyFreeDBPlugin 1.0
#
DISCID=b70d620e
DTITLE=The-Dream - Love Vs. Money
DYEAR=2009
DGENRE=R&B
TTITLE0=Money Intro
TTITLE1=Rockin' That Shit
TTITLE2=Walkin' On The Moon Feat. Kanye West
TTITLE3=My Love Feat. Mariah Carey
TTITLE4=Put It Down
TTITLE5=Sweat It Out
TTITLE6=Take U Home 2 My Mama
TTITLE7=Love Vs. Money
TTITLE8=Love Vs. Money Part  2
TTITLE9=Fancy
TTITLE10=Right Side Of My Brain
TTITLE11=Mr. Yeah
TTITLE12=Kelly's 12 Play
TTITLE13=Let Me See The Booty Feat. Lil Jon
EXTD=
EXTT0=
EXTT1=
EXTT2=
EXTT3=
EXTT4=
EXTT5=
EXTT6=
EXTT7=
EXTT8=
EXTT9=
EXTT10=
EXTT11=
EXTT12=
EXTT13=
PLAYORDER=
